<svg xmlns="http://www.w3.org/2000/svg" width="41" height="29" fill="none"><g fill="#262626" opacity=".9"><path d="m30.245 2.576-.5-.268-.043-.024-.159-.08q.05.026.106.05-.12-.062-.238-.125l-.351-.16.093.044q-.644-.298-1.318-.536c-1.923-.454-3.906-.643-7.32-.699 6.327.311 8.499 1.215 9.227 1.526q.255.129.503.272"/><path d="M25.21.576c-.248-.06-.497-.12-.709-.165L24.37.384c-.728-.116-2.175.113-3.853.4q.216-.029.433-.052c2.778-.318 3.582-.265 4.26-.153zM23.16.179c-.218-.03-.49-.06-.701-.083h-.01c-.04.01-.046.013-1.933.685C22.707.2 22.922.195 23.217.19q-.026-.001-.056-.007z"/><path d="M21.507.053 21.411.02h-.006a13 13 0 0 0-.344-.013c-.116 0-.262-.007-.384-.007.231.01.238.017.344.152q-.066.24-.503.63c.93-.517.96-.616.993-.729zM2.055 27.043C5.683 35.611 14.77 38.892 17.98 39.431q.023.001.047.007c.169.02.38.043.546.06l.338.03h.016c-1.893-.176-14.917-4.02-17.85-15.841.033.175.063.347.096.506a44 44 0 0 0 .834 2.725q.026.063.047.125"/><path d="M19.96.152c.45.169.474.268.553.63.328-.74-.354-.752-.956-.762-.212.01-.494.03-.702.046l-.199.017c.308-.02.95-.063 1.305.07M20.068 39.587q.113.002.225.003h.543c-1.503-.026-23.008-8.177-19.532-24.736v.004c-.12.466-.235 1.095-.334 1.565-.096.603-.176 1.414-.242 2.02C.374 33.297 18.1 39.398 20.068 39.587"/><path d="m16.828.344-.123.024c2.42-.414 3.43.182 3.814.413C19.834.027 18.642.04 16.83.344zM3.238 10.067C-5.498 26.911 18.973 38.802 21.899 39.54q.03 0 .06-.003l.129-.01q.03 0 .063-.007c.149-.013.327-.033.48-.046q.031 0 .056-.006c-3.466-2.636-7.684-4.072-11.024-6.906-1.635-1.387-5.466-4.635-7.703-8.978-4.48-8.69-.494-14.232 1.463-16.615q-.104.119-.202.235l-.331.393a45 45 0 0 0-1.636 2.44z"/><path d="m15.932.533.037-.01c-.03.007-.067.013-.093.02a18.703 18.703 0 0 0-2.178.652c-.265.1-.616.232-.875.341-.31.132-.718.324-1.026.467a13 13 0 0 0-1.02.536c-.35.205-.784.473-1.168.722-3.956 2.721-7.078 7.087-6.647 12.01 1.02 11.613 14.172 19.578 19.12 22.578q1.716 1.04 1.815 1.443s.023-.003.033-.007c.272-.05.613-.122.884-.178q.015-.001.03-.007c.096-.033.165-.172.232-.252-.226-.433-.666-.745-3.046-2.304-6.124-4.012-12.289-8.627-15.887-15.165C-1.977 6.618 13.77-1.02 20.517.778 19.21.27 17.617.215 15.935.53z"/><path d="M22.78 34.896c3.727 2.635 4.615 3.26 3.436 3.843l.037-.01c.182-.056.387-.126.589-.192q.208-.07.41-.145c1.669-.775.216-1.848-3.26-4.407-3.844-2.83-8.63-6.352-12.69-11.504C-.68 7.273 12.11-.255 20.513.781 10.965-1.288-9.58 12.034 22.777 34.896z"/><path d="M24.97 31.936c4.347 3.334 5.976 4.582 3.818 5.827q.024-.012.05-.024c.36-.172.81-.41 1.158-.586 1.682-.983 1.01-2.125.033-3.21-4.088-4.546-9.518-7.559-13.705-11.991C2.847 7.684 11.887.586 20.514.784c-8.792-.8-24.49 8.959 4.457 31.155z"/><path d="M28.331 29.179c4.142 3.317 5.618 5.101 3.407 6.895.377-.264.857-.642 1.234-.93.19-.155.388-.324.576-.493 1.719-1.573.755-2.423-10.805-12.607C5.985 7.287 13.537 2.076 19 .988 14.047 1.91.235 6.667 28.33 29.179M20.294.798a14.356 14.356 0 0 1 0 0M20.515.781l-.222.017q.111-.01.222-.017"/><path d="M27.56 22.684c6.869 5.528 9.447 8.057 7.213 10.805q.024-.024.043-.046c.35-.378.774-.878 1.106-1.258q.01-.013.02-.027c1.956-2.562.086-5.26-7.979-11.527C6.922 4.284 18.068 1.231 20.518.785c-1.784.225-16.744 2.757 7.045 21.899z"/><path d="M28.98 18.26c7.772 5.807 9.91 8.777 8.457 11.746l.172-.291.053-.093.113-.195.444-.854.158-.325c1.735-3.979-4.84-8.766-9.203-11.94C14.956 5.961 16.618 2.157 20.514.787c-3.327.867-9.166 4.31 8.465 17.48z"/><path d="M29.357 13.752c6.786 4.78 10.852 7.978 10.007 11.967.04-.136.083-.271.12-.404.135-.496.271-1.056.38-1.503.583-3.976-3.522-7.008-10.265-11.62-4.456-3.048-12.75-8.723-9.084-11.41-5.748 2.69 5.233 10.427 8.842 12.97"/><path d="M29.856 10.236c7.647 4.962 10.246 7.214 10.385 10.63.003-.066.01-.136.013-.202l.023-.834-.02-.808a8 8 0 0 0-.013-.275c-.294-3.585-5.071-6.541-11.113-10.275-4.25-2.626-9.067-5.605-8.614-7.687-1.99 2.105 4.83 6.528 9.342 9.454z"/><path d="M29.361 7.068c7.045 3.999 9.697 5.942 10.54 8.872-.105-.506-.277-1.149-.42-1.692l-.099-.334c-1.145-2.98-4.982-5.118-11.646-8.62-4.711-2.48-6.264-3.45-7.22-4.51.55 1.576 4.029 3.553 8.845 6.287z"/><path d="M38.374 11.328c-.03-.06-.056-.119-.086-.178l-.4-.792-.268-.473q-.074-.129-.153-.258c-.907-1.41-2.549-2.46-4.9-3.691-3.883-2.033-8.047-3.4-12.05-5.155 1.249.795 3.543 1.847 6.446 3.182 7.704 3.539 10.077 5.068 11.415 7.365z"/><path d="m35.972 7.478-.109-.135-.073-.086-.09-.11c-.29-.337-.618-.705-.88-1C33.1 4.384 28.285 2.58 20.516.782 32.3 4.314 34.582 5.97 35.972 7.478"/><path d="M32.741 4.264a46 46 0 0 0-.874-.652c-.056-.04-.112-.076-.169-.116-1.87-1.179-5.627-2.092-11.182-2.715 3.456.513 9.636 1.672 12.47 3.682a11 11 0 0 0-.245-.2"/><path d="M24.899.778c.46.063.917.146 1.36.248.791.133.89.162 1.493.358-.016-.007-.036-.017-.053-.02-.3-.12-.711-.258-1.02-.368h-.006c-.725-.235-1.576-.264-2.562-.304.046.003.09.01.136.013A17 17 0 0 0 22.71.632c-.797.04-.903.047-2.194.153 2.052-.086 2.98-.07 4.383-.004zm-.381-.046"/></g></svg>