<svg xmlns="http://www.w3.org/2000/svg" width="224" height="58" fill="none"><g opacity=".5"><path fill="#fff" d="M168 37v56h56V37z"/><path fill="#fff" d="M168 37v56h28V37zM224 65c0 15.464-12.536 28-28 28V37c15.464 0 28 12.536 28 28"/><path fill="#FF9E66" d="M224-19v56h-56v-56z"/><path fill="#fff" d="M112 37v56h56V37zM168-19v56h-56v-56z"/><path fill="#FF9E66" d="M168 37a56 56 0 0 1-56-56h56z"/><path fill="#fff" d="M56 37v56h56V37z"/><path fill="#FFBE99" d="M56 37v56h28V37zM112 65c0 15.464-12.536 28-28 28V37c15.464 0 28 12.536 28 28"/><path fill="#fff" d="M112-19v56H56v-56z"/><path fill="#FF9E66" d="M56 37a56 56 0 0 0 56-56H56z"/><path fill="url(#a)" d="M0 0h56v56H0z" transform="matrix(0 1 1 0 0 37)"/><path fill="url(#b)" d="M56-19h56v56H56z" transform="rotate(90 56 -19)"/></g><defs><linearGradient id="a" x1="28" x2="28" y1="0" y2="56" gradientUnits="userSpaceOnUse"><stop stop-color="#FFBE99" stop-opacity="0"/><stop offset="1" stop-color="#FFBE99"/></linearGradient><linearGradient id="b" x1="84" x2="84" y1="-19" y2="37" gradientUnits="userSpaceOnUse"><stop stop-color="#FF9E66"/><stop offset="1" stop-color="#FF9E66" stop-opacity="0"/></linearGradient></defs></svg>