<svg xmlns="http://www.w3.org/2000/svg" width="73" height="45" fill="none"><g fill="#262626" opacity=".9"><path d="M24.253 42.88c.085.031.175.061.266.098a79 79 0 0 0 2.053.654c.636.181 1.49.381 2.131.532-8.35-2.04-15.476-6.611-21.174-13.599l1.605 1.98c.2.224.375.424.545.606a78 78 0 0 0 2.01 2.022c.442.406.993.89 1.756 1.568.393.315.854.666 1.326 1.017 4.05 2.985 6.818 4.087 9.488 5.129z"/><path d="M2.765 22.052C9.4 37.722 26.02 43.722 31.895 44.71c.03 0 .054.005.084.012.31.036.697.078 1 .109l.617.054h.03c-3.463-.32-27.283-7.35-32.647-28.972.06.32.115.635.175.926a81 81 0 0 0 1.526 4.983c.03.079.06.152.085.23"/><path d="M35.708 44.994c.14 0 .273.006.412.006h.993C34.364 44.952-4.968 30.045 1.389-.242v.006C1.171.618.96 1.77.778 2.628.602 3.73.457 5.214.336 6.322-.312 33.49 32.112 44.649 35.708 44.994"/><path d="M4.925-8.997C-11.054 21.81 33.703 43.559 39.056 44.909q.055.002.109-.006l.236-.018q.053-.001.115-.012c.273-.024.6-.06.878-.085a.5.5 0 0 0 .103-.012c-6.34-4.82-14.053-7.448-20.163-12.63-2.99-2.538-9.996-8.477-14.09-16.421-8.191-15.894-.901-26.03 2.677-30.39q-.189.22-.37.43l-.605.72a83 83 0 0 0-2.99 4.463c-.013.018-.02.037-.031.055"/><path d="m28.145-26.435.067-.018c-.055.012-.121.024-.17.036-.4.09-.92.23-1.314.339-.811.224-1.883.557-2.67.854-.484.181-1.126.424-1.598.623-.57.242-1.314.594-1.877.854-.575.267-1.32.66-1.865.981-.642.375-1.435.866-2.138 1.32C9.345-16.47 3.635-8.483 4.422.52c1.865 21.24 25.921 35.808 34.973 41.294q3.137 1.902 3.318 2.64s.043-.006.06-.012c.497-.091 1.12-.224 1.617-.327q.027-.002.055-.012c.175-.06.303-.315.424-.46-.412-.794-1.217-1.363-5.57-4.215C28.096 32.091 16.822 23.65 10.24 11.692c-14.853-26.998 13.95-40.967 26.29-37.68-2.392-.926-5.304-1.029-8.38-.453z"/><path d="M40.668 36.414c6.817 4.82 8.44 5.964 6.285 7.03q.038-.009.066-.018c.333-.103.709-.23 1.078-.352q.38-.128.75-.266c3.052-1.417.394-3.379-5.963-8.059-7.03-5.177-15.785-11.62-23.208-21.04-21.92-27.816 1.477-41.585 16.844-39.69-17.462-3.784-55.039 20.58 4.142 62.395z"/><path d="M44.676 31.001c7.95 6.097 10.929 8.38 6.98 10.656.031-.012.061-.03.092-.042.66-.315 1.483-.75 2.119-1.072 3.076-1.798 1.847-3.887.06-5.873C46.45 26.357 36.52 20.847 28.86 12.74c-24.65-26.097-8.113-39.078 7.666-38.715-16.082-1.465-44.794 16.384 8.15 56.982z"/><path d="M50.822 25.958c7.574 6.067 10.275 9.33 6.23 12.612.69-.484 1.568-1.175 2.259-1.702.345-.284.708-.593 1.053-.902 3.143-2.876 1.38-4.432-19.763-23.056-30.65-26.993-16.838-36.523-6.848-38.515-9.058 1.689-34.319 10.39 17.069 51.563"/><path d="M49.411 14.078c12.564 10.112 17.28 14.738 13.194 19.763a1 1 0 0 0 .079-.085c.641-.69 1.416-1.604 2.022-2.3.012-.019.024-.03.036-.049 3.579-4.686.158-9.621-14.592-21.083-38.485-29.899-18.098-35.481-13.617-36.299-3.264.412-30.626 5.044 12.884 40.053z"/><path d="M52.008 5.989c14.217 10.62 18.128 16.051 15.47 21.482.11-.181.212-.357.315-.533l.097-.17.206-.356.811-1.563q.146-.302.29-.593c3.174-7.278-8.851-16.033-16.832-21.84C26.36-16.505 29.4-23.462 36.525-25.969c-6.084 1.586-16.765 7.883 15.483 31.97z"/><path d="M52.698-2.258C65.11 6.485 72.545 12.334 71 19.63c.073-.248.152-.496.218-.739.249-.908.497-1.931.697-2.749C72.98 8.871 65.473 3.324 53.14-5.11c-8.15-5.577-23.318-15.955-16.615-20.871C26.014-21.06 46.098-6.908 52.698-2.258"/><path d="M53.613-8.688C67.6.388 72.353 4.505 72.607 10.754c.006-.121.018-.248.024-.37l.043-1.525-.037-1.478c-.006-.17-.012-.333-.024-.502C72.074.32 63.337-5.086 52.287-11.915c-7.774-4.802-16.584-10.251-15.755-14.06-3.639 3.851 8.834 11.94 17.087 17.293z"/><path d="M52.704-14.483C65.589-7.168 70.439-3.614 71.983 1.744c-.194-.926-.509-2.1-.77-3.094l-.181-.611c-2.095-5.45-9.112-9.361-21.301-15.767-8.616-4.535-11.456-6.31-13.206-8.247 1.006 2.882 7.37 6.497 16.179 11.498z"/></g></svg>